Simulation
nRows=35
nColumns=15
endheader
time  TH_x TH_y TH_z SC_y  SC_z  SC_x  AC_y  AC_z  AC_x  GH_y  GH_z  GH_yy  EL_x  PS_y
4.133333333333333  0.000000  0.000000  0.000000  -31.57537085095572  8.779840281690516  23.21362970646974  64.2780921433725  3.1641270200142864  4.390757342644229  53.352455341110364  60.88742216686897  -52.99017766178867  10.987706819584258  120.000000
4.173856209150326  0.000000  0.000000  0.000000  -31.525236116859638  8.57400935376992  22.803760172476668  64.41664043633013  3.017977287877568  4.256562816484263  54.26547845260224  60.72216291887819  -53.84256578823635  10.629329683900307  120.000000
4.2143790849673195  0.000000  0.000000  0.000000  -31.498904485315023  8.381856351618922  22.41471523546666  64.56710273333503  2.8995646347697646  4.1642201904532  55.22929164561548  60.56973965548938  -54.67795636822354  10.287712974985963  120.000000
4.254901960784313  0.000000  0.000000  0.000000  -31.50040243835145  8.205406959355688  22.06115771824245  64.73332675838462  2.809903657290877  4.113507810030503  56.22876544758023  60.43615432059723  -55.48683170112249  9.970890206290887  120.000000
4.295424836601307  0.000000  0.000000  0.000000  -31.532272223736783  8.044624205676394  21.753867875753315  64.91997460891352  2.7467097694036156  4.101977070861241  57.25013626871676  60.325713557572925  -56.26427135341534  9.684927086414138  120.000000
4.3359477124183  0.000000  0.000000  0.000000  -31.593831384516246  7.898525026020465  21.49895163915886  65.1300995072928  2.7055748891807854  4.125692937151461  58.27975418212106  60.24084561699307  -57.00857022992204  9.433954635527472  120.000000
4.376470588235294  0.000000  0.000000  0.000000  -31.681747662907522  7.766219233211884  21.298382345221068  65.36321381569049  2.681022685406852  4.179300439444657  59.30276854308567  60.18260688783551  -57.71879671535841  9.221505860091218  120.000000
4.416993464052287  0.000000  0.000000  0.000000  -31.790126197198596  7.6484309800892625  21.151232903244463  65.61423466755154  2.666107041182018  4.256618973348625  60.30290681614459  60.15067101392423  -58.392668170190554  9.051116911815749  120.000000
4.45751633986928  0.000000  0.000000  0.000000  -31.91023926558166  7.54731108675228  21.05465511070924  65.8743141718722  2.6532837690032567  4.351347455701696  61.263959144871755  60.14222497445566  -59.026162503951774  8.925507941024241  120.000000
4.498039215686274  0.000000  0.000000  0.000000  -32.03317814231565  7.464681569686871  21.004759364193514  66.13327603292561  2.636093514550557  4.456845457696037  62.17155361165649  60.15196938967382  -59.614091291086744  8.84699276261718  120.000000
4.538562091503268  0.000000  0.000000  0.000000  -32.151540881567605  7.401722681719012  20.99750607450122  66.38098446287054  2.6094511596860728  4.566368549921818  63.01372126934347  60.17310104604853  -60.15046077094217  8.817590010096598  120.000000
4.579084967320261  0.000000  0.000000  0.000000  -32.25937161133151  7.358917405257535  21.029390425841974  66.60863713281493  2.5698566752271077  4.673801888910187  63.781758208728746  60.19819751350884  -60.629896352299724  8.83695524313711  120.000000
4.6196078431372545  0.000000  0.000000  0.000000  -32.35318963220193  7.335212098463122  21.097389560814502  66.8107607597617  2.515861480742209  4.7741020769637705  64.47130203741487  60.220494972407714  -61.04940542135168  8.90090154233442  120.000000
4.660130718954248  0.000000  0.000000  0.000000  -32.432562124828486  7.327846177276199  21.1985158281705  66.98571664087099  2.447959382763616  4.8635281450903705  65.08238280241942  60.235218591068076  -61.40935771789595  9.001630565952258  120.000000
4.700653594771241  0.000000  0.000000  0.000000  -32.499127832717406  7.333115405468948  21.329486800703823  67.13472018698778  2.36795518100355  4.9397427204289714  65.61834840395083  60.2402837222748  -61.71377639075671  9.12859553639246  120.000000
4.741176470588234  0.000000  0.000000  0.000000  -32.55558344319531  7.347083807957019  21.48644409465103  67.26065980781343  2.278358937769861  5.001663094716866  66.08461039564243  60.23639274489593  -61.97006105313747  9.269643910446334  120.000000
4.781699346405228  0.000000  0.000000  0.000000  -32.6050697657242  7.365988467095709  21.664808390669  67.3672094512837  2.1819446269229172  5.049158790971647  66.487449895126  60.22660052277863  -62.18811147698353  9.412144685684403  120.000000
4.822222222222222  0.000000  0.000000  0.000000  -32.65062812762635  7.3865091201899755  21.859360568061824  67.45811280716518  2.081425154171898  5.0827671959207175  66.83301221883808  60.21539924782393  -62.37893419808268  9.54384775676918  120.000000
4.862745098039215  0.000000  0.000000  0.000000  -32.6947246084135  7.405939541154382  22.064425520089312  67.53670478078439  1.9792628640521186  5.103449882852106  67.12642753507338  60.20735735453953  -62.55288276006844  9.653920072234822  120.000000
4.903267973856209  0.000000  0.000000  0.000000  -32.73879573483595  7.422312263040772  22.274059483950236  67.60542520375871  1.8775650814566998  5.112351566707796  67.37108129858399  60.205419944742154  -62.71768219197921  9.734504356561049  120.000000
4.943790849673202  0.000000  0.000000  0.000000  -32.782879863806606  7.434526496065941  22.482187070702572  67.66536882496138  1.7780873235763341  5.1105590649420805  67.56807256214029  60.20932190258795  -62.87672120284691  9.782260055532742  120.000000
4.984313725490195  0.000000  0.000000  0.000000  -32.825553128905575  7.442326816621967  22.68268607301082  67.71604180961025  1.6823145941902593  5.098905270028834  67.71608274109923  60.214797191211595  -63.02819180700472  9.79883026962131  120.000000
5.024836601307189  0.000000  0.000000  0.000000  -32.864176780570794  7.446134249403591  22.869431015963215  67.75544078606089  1.5916121703817538  5.077799422191127  67.81164662479365  60.2139780509415  -63.16528048369738  9.789895354881358  120.000000
5.065359477124183  0.000000  0.000000  0.000000  -32.895287133214154  7.4468633839033185  23.03630232439678  67.78025882444955  1.5073957662031046  5.047197903974912  67.8496119709901  60.196666180184266  -63.27705697818829  9.763620849872158  120.000000
5.105882352941176  0.000000  0.000000  0.000000  -32.91495986897966  7.445864285199399  23.177212672552347  67.78609766698042  1.4313245158499217  5.006675323411193  67.82348683937448  60.1521036344591  -63.349485569609406  9.729339516445659  120.000000
5.146405228758169  0.000000  0.000000  0.000000  -32.91922382928856  7.445020545169435  23.286300488176824  67.76772852869894  1.3655595684173483  4.955768428662168  67.72559534845769  60.07081339869601  -63.366142481575764  9.696633314047775  120.000000
5.186928104575163  0.000000  0.000000  0.000000  -32.904535489542695  7.4468677766992615  23.35838342291517  67.71959520011082  1.313097848682048  4.894484933072782  67.54703626412336  59.94650051491427  -63.30854769577411  9.674349954767937  120.000000
5.227450980392156  0.000000  0.000000  0.000000  -32.8683340648394  7.454722531732492  23.389810017380654  67.63661079113187  1.2781903874008738  4.824113085028365  67.27761173316135  59.777479374813  -63.15596657874875  9.669295813970901  120.000000
5.267973856209149  0.000000  0.000000  0.000000  -32.80963032846703  7.4725590222882765  23.379354789125465  67.51517583827601  1.2665210500996211  4.747807879545353  66.90581849647099  59.56774862272974  -62.885210734507986  9.685021483614356  120.000000
5.308496732026143  0.000000  0.000000  0.000000  -32.72911100038457  7.505089591332365  23.32889079681794  67.35381664367966  1.284938343647033  4.6711292819489  66.41883078362656  59.326985946244875  -62.470566307391  9.72137042093031  120.000000
5.349019607843137  0.000000  0.000000  0.000000  -32.629033829287884  7.5578023942433585  23.24337629743766  67.15317420844852  1.3408719255576422  4.6019590655023865  65.80272026604507  59.06982559367785  -61.88443089209603  9.775399592480639  120.000000
5.38954248366013  0.000000  0.000000  0.000000  -32.5135038714181  7.636318020079614  23.13076182039562  66.91589447275565  1.4413349662363746  4.549746285188474  65.04327942130298  58.814227632744405  -61.09846882217588  9.843049186843855  120.000000
5.4300653594771235  0.000000  0.000000  0.000000  -32.38855200965516  7.745629185837674  23.00212488181552  66.64661605386578  1.5921954393948758  4.524282959601119  64.12825803822015  58.579081617640476  -60.086029929163054  9.919867962507837  120.000000
5.470588235294117  0.000000  0.000000  0.000000  -32.26235681086382  7.888494789439196  22.870633612882663  66.35270289381761  1.7978760252590287  4.534509088119137  63.04948219965368  58.382071566477975  -58.82510078217825  10.001128279715465  120.000000
5.51111111111111  0.000000  0.000000  0.000000  -32.14488805247162  8.064429644795839  22.7498645880147  66.04338334004375  2.060947971892388  4.5871959840787575  61.80522099042548  58.23816151109468  -57.3020101415769  10.082977931310413  120.000000
